<svg id="visual" viewBox="0 0 900 900" width="900" height="900" xmlns="http://www.w3.org/2000/svg" xmlns:xlink="http://www.w3.org/1999/xlink" version="1.1"><path d="M0 127L53 127L53 118L106 118L106 181L159 181L159 181L212 181L212 145L265 145L265 136L318 136L318 190L371 190L371 100L424 100L424 154L476 154L476 181L529 181L529 109L582 109L582 145L635 145L635 82L688 82L688 73L741 73L741 217L794 217L794 172L847 172L847 172L900 172L900 127L900 0L900 0L847 0L847 0L794 0L794 0L741 0L741 0L688 0L688 0L635 0L635 0L582 0L582 0L529 0L529 0L476 0L476 0L424 0L424 0L371 0L371 0L318 0L318 0L265 0L265 0L212 0L212 0L159 0L159 0L106 0L106 0L53 0L53 0L0 0Z" fill="#f707cc"></path><path d="M0 181L53 181L53 226L106 226L106 262L159 262L159 262L212 262L212 190L265 190L265 190L318 190L318 235L371 235L371 172L424 172L424 190L476 190L476 244L529 244L529 163L582 163L582 235L635 235L635 145L688 145L688 172L741 172L741 280L794 280L794 271L847 271L847 271L900 271L900 172L900 125L900 170L847 170L847 170L794 170L794 215L741 215L741 71L688 71L688 80L635 80L635 143L582 143L582 107L529 107L529 179L476 179L476 152L424 152L424 98L371 98L371 188L318 188L318 134L265 134L265 143L212 143L212 179L159 179L159 179L106 179L106 116L53 116L53 125L0 125Z" fill="#ce15ba"></path><path d="M0 280L53 280L53 307L106 307L106 325L159 325L159 307L212 307L212 253L265 253L265 235L318 235L318 325L371 325L371 244L424 244L424 235L476 235L476 334L529 334L529 235L582 235L582 298L635 298L635 235L688 235L688 244L741 244L741 325L794 325L794 316L847 316L847 334L900 334L900 208L900 170L900 269L847 269L847 269L794 269L794 278L741 278L741 170L688 170L688 143L635 143L635 233L582 233L582 161L529 161L529 242L476 242L476 188L424 188L424 170L371 170L371 233L318 233L318 188L265 188L265 188L212 188L212 260L159 260L159 260L106 260L106 224L53 224L53 179L0 179Z" fill="#a619a7"></path><path d="M0 397L53 397L53 451L106 451L106 451L159 451L159 532L212 532L212 541L265 541L265 487L318 487L318 631L371 631L371 424L424 424L424 478L476 478L476 604L529 604L529 442L582 442L582 415L635 415L635 478L688 478L688 586L741 586L741 577L794 577L794 613L847 613L847 568L900 568L900 550L900 206L900 332L847 332L847 314L794 314L794 323L741 323L741 242L688 242L688 233L635 233L635 296L582 296L582 233L529 233L529 332L476 332L476 233L424 233L424 242L371 242L371 323L318 323L318 233L265 233L265 251L212 251L212 305L159 305L159 323L106 323L106 305L53 305L53 278L0 278Z" fill="#811891"></path><path d="M0 523L53 523L53 559L106 559L106 505L159 505L159 622L212 622L212 604L265 604L265 649L318 649L318 703L371 703L371 550L424 550L424 613L476 613L476 712L529 712L529 514L582 514L582 460L635 460L635 622L688 622L688 631L741 631L741 694L794 694L794 730L847 730L847 640L900 640L900 640L900 548L900 566L847 566L847 611L794 611L794 575L741 575L741 584L688 584L688 476L635 476L635 413L582 413L582 440L529 440L529 602L476 602L476 476L424 476L424 422L371 422L371 629L318 629L318 485L265 485L265 539L212 539L212 530L159 530L159 449L106 449L106 449L53 449L53 395L0 395Z" fill="#5e157a"></path><path d="M0 613L53 613L53 676L106 676L106 577L159 577L159 703L212 703L212 703L265 703L265 712L318 712L318 775L371 775L371 595L424 595L424 730L476 730L476 766L529 766L529 613L582 613L582 577L635 577L635 676L688 676L688 739L741 739L741 757L794 757L794 784L847 784L847 748L900 748L900 721L900 638L900 638L847 638L847 728L794 728L794 692L741 692L741 629L688 629L688 620L635 620L635 458L582 458L582 512L529 512L529 710L476 710L476 611L424 611L424 548L371 548L371 701L318 701L318 647L265 647L265 602L212 602L212 620L159 620L159 503L106 503L106 557L53 557L53 521L0 521Z" fill="#3f0f62"></path><path d="M0 901L53 901L53 901L106 901L106 901L159 901L159 901L212 901L212 901L265 901L265 901L318 901L318 901L371 901L371 901L424 901L424 901L476 901L476 901L529 901L529 901L582 901L582 901L635 901L635 901L688 901L688 901L741 901L741 901L794 901L794 901L847 901L847 901L900 901L900 901L900 719L900 746L847 746L847 782L794 782L794 755L741 755L741 737L688 737L688 674L635 674L635 575L582 575L582 611L529 611L529 764L476 764L476 728L424 728L424 593L371 593L371 773L318 773L318 710L265 710L265 701L212 701L212 701L159 701L159 575L106 575L106 674L53 674L53 611L0 611Z" fill="#220849"></path></svg>